<?xml version="1.0" encoding="utf-8"?>
<!-- Generator: Adobe Illustrator 24.2.0, SVG Export Plug-In . SVG Version: 6.00 Build 0)  -->
<svg version="1.1" id="Camada_1" xmlns="http://www.w3.org/2000/svg" xmlns:xlink="http://www.w3.org/1999/xlink" x="0px" y="0px"
	 viewBox="0 0 1280 250" style="enable-background:new 0 0 1280 250;" xml:space="preserve">
<style type="text/css">
	.st0{fill:#A6E22E;}
</style>
<path class="st0" d="M0,83.4l30.5,9.3c30.5,8.9,91.3,28.1,152.6,50.9c60.7,23.2,121.8,51,182.2,55.6c61.3,5,122.7-14.2,183.1-37
	c61.1-23.2,121.8-51,183.1-46.4c60.8,5,121.8,41.4,183.1,46.4c60.5,4.6,121.8-23.2,182.2-55.6c61.2-32.8,121.8-69.2,152.9-88.1
	L1280,0v250.2h-30.5c-30.5,0-91.3,0-152.6,0c-60.7,0-121.8,0-182.2,0c-61.3,0-122.7,0-183.1,0c-61.1,0-121.8,0-183.1,0
	c-60.8,0-121.8,0-183.1,0c-60.5,0-121.8,0-182.2,0c-61.2,0-121.8,0-152.9,0H0V83.4z"/>
</svg>
